<svg width="80" height="80" viewBox="0 0 80 80" fill="none" xmlns="http://www.w3.org/2000/svg">
<g clip-path="url(#clip0_1_4)">
<path d="M40 80C62.0914 80 80 62.0914 80 40C80 17.9086 62.0914 0 40 0C17.9086 0 0 17.9086 0 40C0 62.0914 17.9086 80 40 80Z" fill="#1D1D1B"/>
<path d="M33.8 51.7C33.5 51.7 33.1 51.6 32.8 51.4L23.5 43.9C22.9 43.4 22.8 42.5 23.3 41.9C23.8 41.3 24.7 41.2 25.4 41.7L33.7 48.3L55.5 28.7C56.1 28.2 57.1 28.3 57.6 28.9C58.1 29.5 58.1 30.4 57.6 30.9L34.9 51.3C34.6 51.5 34.2 51.7 33.8 51.7Z" fill="#FF0002"/>
</g>
<defs>
<clipPath id="clip0_1_4">
<rect width="80" height="80" fill="white"/>
</clipPath>
</defs>
</svg>
