<svg width="146" height="56" viewBox="0 0 146 56" fill="none" xmlns="http://www.w3.org/2000/svg">
<path d="M1.82818 2.39599C13.6134 24.3678 23.2002 40.8963 49.5446 43.5086C62.1191 44.7555 72.8298 38.7839 77.6119 26.7113C86.3141 4.74236 48.4637 7.6417 50.8686 26.3335C55.2774 60.5998 100.005 57.6848 122.307 44.786C128.806 41.027 136.129 36.63 142.122 32.2235C147.321 28.4013 142.476 34.5604 141.175 36.6773C138.766 40.599 137.675 44.7692 135.319 48.6027C131.197 55.3108 134.451 48.5269 136.505 45.5621C142.397 37.0577 149.426 31.0524 135.591 29.302C132.806 28.9498 118.723 26.0119 119.829 27.7391C122.964 32.636 124.094 40.0147 127.273 44.3941C131.623 50.3889 132.237 55.1472 129.799 44.392C129.004 40.8827 127.809 37.7665 126.876 34.3752C125.34 28.7865 128.67 35.7885 128.679 36.5752C128.706 38.8601 131.289 43.0716 129.919 38.0876C129.566 36.8045 127.366 31.8871 128.389 33.1356C131.62 37.0776 131.934 45.4915 133.462 41.8497C134.746 38.7893 133.822 36.9442 131.655 34.5963C130.917 33.7971 125.989 32.731 127.151 34.1498" stroke="white" stroke-width="3" stroke-linecap="round"/>
</svg>
