<svg width="15" height="19" viewBox="0 0 15 19" fill="none" xmlns="http://www.w3.org/2000/svg">
<path d="M0 2.12037C0 1.14921 0 0.663626 0.20249 0.395955C0.378894 0.162766 0.648522 0.0184654 0.940398 0.00103806C1.27544 -0.0189663 1.67946 0.250386 2.48752 0.78909L13.0031 7.79946C13.6708 8.24459 14.0046 8.46715 14.1209 8.74767C14.2227 8.99293 14.2227 9.26856 14.1209 9.51381C14.0046 9.79434 13.6708 10.0169 13.0031 10.462L2.48752 17.4724C1.67946 18.0111 1.27544 18.2805 0.940398 18.2604C0.648522 18.243 0.378894 18.0987 0.20249 17.8655C0 17.5979 0 17.1123 0 16.1411V2.12037Z" fill="black"/>
</svg>
